<?xml version="1.0" encoding="utf-8"?>
<!-- Generator: Adobe Illustrator 27.3.1, SVG Export Plug-In . SVG Version: 6.00 Build 0)  -->
<svg version="1.1" id="coins" xmlns="http://www.w3.org/2000/svg" xmlns:xlink="http://www.w3.org/1999/xlink" x="0px" y="0px"
	 viewBox="0 0 50 50" style="enable-background:new 0 0 50 50;" xml:space="preserve">
<style type="text/css">
	.st0{fill:#DCD4FC;}
	.st1{fill:#443C62;}
	.st2{fill:#B1426B;}
</style>
<g id="Layer_2_00000136385107072220885270000013071996590271210653_">
	<path id="Path_22137" class="st0" d="M40.6,50H9.4C4.2,50,0,45.8,0,40.6c0,0,0,0,0,0V9.4C0,4.2,4.2,0,9.4,0c0,0,0,0,0,0h31.2
		C45.8,0,50,4.2,50,9.4c0,0,0,0,0,0v31.2C50,45.8,45.8,50,40.6,50C40.6,50,40.6,50,40.6,50z"/>
</g>
<g id="isDVFh.tif">
	<g>
		<path class="st1" d="M32.9,31.7c-0.6,0-1.3,0-1.9,0.1c-0.9,0-1.8,0.1-2.7,0.2c-0.8,0.1-1.6,0.1-2.4,0.2c-0.7,0.1-1.5,0.1-2.2,0.2
			c-0.5,0-1,0.1-1.4,0.1c-0.6,0-1.2,0-1.7-0.3c-0.7-0.3-1.2-0.8-1.3-1.6c-0.1-0.5,0-0.9,0.1-1.4c0.1-0.3,0.3-0.6,0.4-0.9
			c0,0,0-0.1,0-0.2c-0.7-2.2-1.3-4.5-2-6.7c-0.6-2.2-1.3-4.3-1.9-6.5c-0.1-0.3-0.1-0.3-0.4-0.3c-0.7,0-1.5,0-2.2,0
			c-0.7,0-1.2-0.7-1-1.4c0.1-0.5,0.6-0.8,1.1-0.8c0.3,0,0.7,0,1,0c0.7,0,1.4,0,2.1,0c0.4,0,0.7,0.1,0.9,0.4c0.1,0.1,0.2,0.3,0.2,0.4
			c0.3,0.9,0.6,1.9,0.8,2.8c0,0.1,0.1,0.1,0.2,0.1c6.1,0,12.1,0,18.2,0c0.3,0,0.6,0.1,0.8,0.2c0.3,0.3,0.4,0.6,0.4,1
			c-0.1,0.7-0.3,1.4-0.4,2.1c-0.2,1.2-0.5,2.4-0.7,3.5c-0.2,0.9-0.4,1.9-0.5,2.8c-0.1,0.3-0.1,0.6-0.2,0.9c-0.1,0.5-0.5,0.9-1,0.9
			c-0.8,0.1-1.5,0.2-2.3,0.3c-0.9,0.1-1.7,0.2-2.6,0.3c-0.9,0.1-1.8,0.2-2.8,0.3c-0.7,0.1-1.4,0.2-2.1,0.3c-0.9,0.1-1.7,0.2-2.6,0.3
			c-0.5,0.1-1,0.1-1.5,0.2c-0.1,0-0.1,0-0.1,0.1c0,0.2-0.1,0.3-0.1,0.5c0,0.2,0.1,0.3,0.2,0.3c0.2,0.1,0.4,0.1,0.6,0.2
			c0.4,0.1,0.8,0,1.3,0c0.7-0.1,1.4-0.1,2.1-0.2c0.8-0.1,1.6-0.1,2.3-0.2c0.8-0.1,1.6-0.1,2.4-0.1c0.9,0,1.8-0.1,2.7-0.1
			c0.8,0,1.7,0,2.5,0c0.4,0,0.8,0.4,0.8,0.8c0,0.4-0.3,0.8-0.7,0.9c-0.2,0-0.4,0-0.5,0C33.9,31.7,33.4,31.7,32.9,31.7
			C32.9,31.7,32.9,31.7,32.9,31.7z M19.1,18.4C19.1,18.4,19.1,18.4,19.1,18.4c0.3,1.2,0.7,2.3,1,3.4c0,0.1,0.1,0.1,0.1,0.1
			c1.4,0,2.7,0,4.1,0c0.1,0,0.1,0,0.1-0.1c0-1.1,0-2.1,0-3.2c0-0.1,0-0.1,0-0.2C22.6,18.4,20.8,18.4,19.1,18.4z M25.4,26.8
			c0.3,0,0.5-0.1,0.8-0.1c0.6-0.1,1.3-0.2,1.9-0.2c0.5-0.1,1.1-0.1,1.6-0.2c0.1,0,0.1,0,0.1-0.1c0-1.1,0-2.1,0-3.2c0,0,0,0,0-0.1
			c-1.5,0-2.9,0-4.4,0C25.4,24.2,25.4,25.5,25.4,26.8z M25.4,18.4c0,1.2,0,2.3,0,3.5c0.1,0,0.2,0,0.3,0c1.3,0,2.7,0,4,0
			c0.1,0,0.1,0,0.1-0.1c0-1,0-2.1,0-3.1c0-0.1,0-0.1,0-0.2C28.3,18.4,26.9,18.4,25.4,18.4z M30.9,21.9
			C30.9,21.9,30.9,21.9,30.9,21.9c1.2,0,2.2,0,3.3,0c0.2,0,0.4,0,0.6,0c0.1,0,0.1,0,0.1-0.1c0.2-1,0.4-1.9,0.6-2.9
			c0-0.2,0.1-0.3,0.1-0.5c-1.6,0-3.1,0-4.6,0C30.9,19.5,30.9,20.7,30.9,21.9z M20.4,22.9C20.4,22.9,20.4,22.9,20.4,22.9
			c0.3,1.1,0.6,2,0.9,3c0.1,0.4,0.3,0.9,0.4,1.3c0,0,0.1,0,0.1,0c0.1,0,0.2,0,0.3,0c0.7-0.1,1.5-0.2,2.2-0.3c0.1,0,0.1,0,0.1-0.1
			c0-1.3,0-2.6,0-3.9c0,0,0,0,0-0.1C23,22.9,21.7,22.9,20.4,22.9z M34.6,22.9c-1.3,0-2.5,0-3.8,0c0,1.1,0,2.2,0,3.3
			c0.2,0,0.5-0.1,0.7-0.1c0.8-0.1,1.6-0.2,2.4-0.3c0.1,0,0.1,0,0.1-0.1c0.1-0.6,0.2-1.2,0.4-1.9C34.5,23.5,34.6,23.2,34.6,22.9z"/>
		<path class="st2" d="M20.8,37.5c-1.1,0-2.2-1-2.1-2.2c0-1.2,1-2.1,2.2-2.1c1.2,0,2.1,1,2.1,2.2C22.9,36.6,22,37.5,20.8,37.5z"/>
		<path class="st2" d="M33,37.5c-1.1,0-2.1-1-2.1-2.2c0-1.2,1-2.1,2.2-2.1c1.2,0,2.1,1,2.1,2.2C35.2,36.6,34.2,37.5,33,37.5z"/>
	</g>
</g>
</svg>
