<svg id="question-mark" xmlns="http://www.w3.org/2000/svg" width="50" height="50" viewBox="0 0 50 50">
  <path id="Path_22205" data-name="Path 22205" d="M40.625,50H9.375A9.374,9.374,0,0,1,0,40.625V9.375A9.374,9.374,0,0,1,9.375,0h31.25A9.374,9.374,0,0,1,50,9.375v31.25A9.374,9.374,0,0,1,40.625,50Z" fill="#f5e6fe"/>
  <g id="Group_9898" data-name="Group 9898" transform="translate(12.5 24.48)">
    <circle id="Ellipse_1205" data-name="Ellipse 1205" cx="3.125" cy="3.125" r="3.125" transform="translate(16.145)" fill="#be63f9"/>
    <path id="Path_22206" data-name="Path 22206" d="M25.261,20.667h-5.73a2.867,2.867,0,0,0-2.864,2.864v1.563a.782.782,0,0,0,.781.781h9.9a.782.782,0,0,0,.781-.781V23.531A2.867,2.867,0,0,0,25.261,20.667Z" transform="translate(-3.125 -12.854)" fill="#be63f9"/>
    <circle id="Ellipse_1206" data-name="Ellipse 1206" cx="2.083" cy="2.083" r="2.083" transform="translate(2.084 3.645)" fill="#be63f9"/>
    <path id="Path_22207" data-name="Path 22207" d="M13.469,21.333h-2.6A2.868,2.868,0,0,0,8,24.2v.52a.782.782,0,0,0,.781.781h6.77a.782.782,0,0,0,.781-.781V24.2A2.868,2.868,0,0,0,13.469,21.333Z" transform="translate(-8 -12.48)" fill="#be63f9"/>
  </g>
  <path id="Path_22208" data-name="Path 22208" d="M20.761,8h-9.9A2.867,2.867,0,0,0,8,10.864v7.813a2.867,2.867,0,0,0,2.864,2.864h5.164l3.161,2.919a.779.779,0,0,0,.53.206.792.792,0,0,0,.314-.066.781.781,0,0,0,.467-.714V21.542h.261a2.867,2.867,0,0,0,2.864-2.864V10.866A2.867,2.867,0,0,0,20.761,8ZM15.813,19.458a.781.781,0,1,1,.781-.781A.782.782,0,0,1,15.813,19.458Zm1.538-4.669a1.686,1.686,0,0,0-.756,1.3v.239a.781.781,0,1,1-1.562,0v-.239a3.213,3.213,0,0,1,1.4-2.566,1.042,1.042,0,1,0-1.658-.841.781.781,0,0,1-1.562,0,2.6,2.6,0,1,1,4.144,2.1Z" transform="translate(4.5 4.5)" fill="#d9a4fc"/>
</svg>
