<?xml version="1.0" encoding="UTF-8"?>
<!DOCTYPE svg PUBLIC "-//W3C//DTD SVG 1.1//EN" "http://www.w3.org/Graphics/SVG/1.1/DTD/svg11.dtd">
<!-- Creator: CorelDRAW -->
<svg xmlns="http://www.w3.org/2000/svg" xml:space="preserve" width="100px" height="129px" version="1.1" style="shape-rendering:geometricPrecision; text-rendering:geometricPrecision; image-rendering:optimizeQuality; fill-rule:evenodd; clip-rule:evenodd"
viewBox="0 0 100 129.41"
 xmlns:xlink="http://www.w3.org/1999/xlink"
 xmlns:xodm="http://www.corel.com/coreldraw/odm/2003">
 <defs>
  <style type="text/css">
   <![CDATA[
    .fil0 {fill:none}
   ]]>
  </style>
    <clipPath id="id0">
     <path d="M45.28 66.59l16.92 0 0 -10.05 -16.92 0 0 10.05z"/>
    </clipPath>
     <clipPath id="id1">
      <path d="M45.28 66.59l16.92 0 0 -10.05 -16.92 0 0 10.05z"/>
     </clipPath>
     <clipPath id="id2">
      <path d="M45.28 66.59l16.92 0 0 -10.05 -16.92 0 0 10.05z"/>
     </clipPath>
    <clipPath id="id3">
     <path d="M40.51 61.45l13.66 0 0 -7.6 -13.66 0 0 7.6z"/>
    </clipPath>
     <clipPath id="id4">
      <path d="M40.51 61.45l13.66 0 0 -7.6 -13.66 0 0 7.6z"/>
     </clipPath>
     <clipPath id="id5">
      <path d="M40.51 61.45l13.66 0 0 -7.6 -13.66 0 0 7.6z"/>
     </clipPath>
    <clipPath id="id6">
     <path d="M54.7 65.9l10.91 0 0 -3.22 -10.91 0 0 3.22z"/>
    </clipPath>
     <clipPath id="id7">
      <path d="M54.7 65.9l10.91 0 0 -3.22 -10.91 0 0 3.22z"/>
     </clipPath>
     <clipPath id="id8">
      <path d="M54.7 65.9l10.91 0 0 -3.22 -10.91 0 0 3.22z"/>
     </clipPath>
    <clipPath id="id9">
     <path d="M59.86 60.13l5.36 0 0 -4.35 -5.36 0 0 4.35z"/>
    </clipPath>
     <clipPath id="id10">
      <path d="M59.86 60.13l5.36 0 0 -4.35 -5.36 0 0 4.35z"/>
     </clipPath>
     <clipPath id="id11">
      <path d="M59.86 60.13l5.36 0 0 -4.35 -5.36 0 0 4.35z"/>
     </clipPath>
    <clipPath id="id12">
     <path d="M42.27 66.83l1.56 0 0 -1.56 -1.56 0 0 1.56z"/>
    </clipPath>
     <clipPath id="id13">
      <path d="M42.27 66.83l1.56 0 0 -1.56 -1.56 0 0 1.56z"/>
     </clipPath>
     <clipPath id="id14">
      <path d="M42.27 66.83l1.56 0 0 -1.56 -1.56 0 0 1.56z"/>
     </clipPath>
 </defs>
 <g id="Layer_x0020_1">
  <metadata id="CorelCorpID_0Corel-Layer"/>
  <g id="_3006723656848">
   <g>
   </g>
   <g style="clip-path:url(#id0)">
    <g>
    </g>
    <g style="clip-path:url(#id1)">
     <image id="nw2.jpg" x="45.28" y="56.54" width="16.93" height="10.06" xlink:href="bgi_Images\bgi_ImgID1.png"/>
    </g>
    <g style="clip-path:url(#id2)">
    </g>
   </g>
   <polygon class="fil0" points="45.28,66.59 62.2,66.59 62.2,56.54 45.28,56.54 "/>
   <g>
   </g>
   <g>
   </g>
   <g style="clip-path:url(#id3)">
    <g>
    </g>
    <g style="clip-path:url(#id4)">
     <image id="nw4-removebg-preview_x0020_28129.png" x="40.51" y="53.85" width="13.66" height="7.6" xlink:href="bgi_Images\bgi_ImgID2.png"/>
    </g>
    <g style="clip-path:url(#id5)">
    </g>
   </g>
   <polygon class="fil0" points="40.51,61.45 54.17,61.45 54.17,53.85 40.51,53.85 "/>
   <g>
   </g>
   <g>
   </g>
   <g style="clip-path:url(#id6)">
    <g>
    </g>
    <g style="clip-path:url(#id7)">
     <image id="nw1-removebg-preview.png" x="54.7" y="62.68" width="10.91" height="3.22" xlink:href="bgi_Images\bgi_ImgID3.png"/>
    </g>
    <g style="clip-path:url(#id8)">
    </g>
   </g>
   <polygon class="fil0" points="54.7,65.9 65.61,65.9 65.61,62.68 54.7,62.68 "/>
   <g>
   </g>
   <g style="clip-path:url(#id9)">
    <g>
    </g>
    <g style="clip-path:url(#id10)">
     <image id="nw3-removebg-preview.png" x="59.86" y="55.78" width="5.35" height="4.35" xlink:href="bgi_Images\bgi_ImgID4.png"/>
    </g>
    <g style="clip-path:url(#id11)">
    </g>
   </g>
   <polygon class="fil0" points="59.86,60.13 65.22,60.13 65.22,55.78 59.86,55.78 "/>
   <g>
   </g>
   <g style="clip-path:url(#id12)">
    <g>
    </g>
    <g style="clip-path:url(#id13)">
     <image id="nw5-removebg-preview.png" x="42.27" y="65.27" width="1.56" height="1.56" xlink:href="bgi_Images\bgi_ImgID5.png"/>
    </g>
    <g style="clip-path:url(#id14)">
    </g>
   </g>
   <polygon class="fil0" points="42.27,66.83 43.83,66.83 43.83,65.27 42.27,65.27 "/>
  </g>
 </g>
</svg>
