<?xml version="1.0" encoding="UTF-8"?>
<svg width="661px" height="785px" viewBox="0 0 661 785" version="1.1" xmlns="http://www.w3.org/2000/svg" xmlns:xlink="http://www.w3.org/1999/xlink">
    <!-- Generator: Sketch 58 (84663) - https://sketch.com -->
    <title>Illustration</title>
    <desc>Created with Sketch.</desc>
    <defs>
        <linearGradient x1="51.211013%" y1="15.5503664%" x2="48.7890023%" y2="84.4491866%" id="linearGradient-1">
            <stop stop-color="#FFFFFF" offset="0%"></stop>
            <stop stop-color="#FFFFFF" stop-opacity="0" offset="100%"></stop>
        </linearGradient>
        <linearGradient x1="53.1421573%" y1="17.6320226%" x2="47.0741461%" y2="80.1406929%" id="linearGradient-2">
            <stop stop-color="#FFFFFF" offset="0%"></stop>
            <stop stop-color="#FFFFFF" stop-opacity="0" offset="100%"></stop>
        </linearGradient>
        <linearGradient x1="41.9967749%" y1="84.9067789%" x2="54.7741153%" y2="8.66087123%" id="linearGradient-3">
            <stop stop-color="#FFFFFF" offset="0%"></stop>
            <stop stop-color="#FFFFFF" stop-opacity="0" offset="100%"></stop>
        </linearGradient>
        <linearGradient x1="65.4918888%" y1="-21.5483163%" x2="41.972556%" y2="88.4247087%" id="linearGradient-4">
            <stop stop-color="#FFFFFF" offset="0%"></stop>
            <stop stop-color="#FFFFFF" stop-opacity="0" offset="100%"></stop>
        </linearGradient>
        <linearGradient x1="114.409092%" y1="50.0074724%" x2="8.38675844%" y2="49.9952448%" id="linearGradient-5">
            <stop stop-color="#FFFFFF" offset="0%"></stop>
            <stop stop-color="#FFFFFF" stop-opacity="0" offset="100%"></stop>
        </linearGradient>
        <linearGradient x1="48.4223943%" y1="83.3690633%" x2="51.5808874%" y2="16.561513%" id="linearGradient-6">
            <stop stop-color="#FFFFFF" offset="0%"></stop>
            <stop stop-color="#FFFFFF" stop-opacity="0" offset="100%"></stop>
        </linearGradient>
        <linearGradient x1="60.3007834%" y1="6.71683519%" x2="45.237411%" y2="70.0120829%" id="linearGradient-7">
            <stop stop-color="#FFFFFF" offset="0%"></stop>
            <stop stop-color="#FFFFFF" stop-opacity="0" offset="100%"></stop>
        </linearGradient>
        <linearGradient x1="59.2904819%" y1="32.2077059%" x2="40.7095181%" y2="67.7922941%" id="linearGradient-8">
            <stop stop-color="#FFFFFF" offset="0%"></stop>
            <stop stop-color="#FFFFFF" stop-opacity="0" offset="100%"></stop>
        </linearGradient>
        <linearGradient x1="59.2905351%" y1="32.2075882%" x2="40.7094649%" y2="67.7924118%" id="linearGradient-9">
            <stop stop-color="#FFFFFF" offset="0%"></stop>
            <stop stop-color="#FFFFFF" stop-opacity="0" offset="100%"></stop>
        </linearGradient>
        <linearGradient x1="54.4044059%" y1="12.074857%" x2="44.4675412%" y2="97.6385932%" id="linearGradient-10">
            <stop stop-color="#6342A7" offset="0%"></stop>
            <stop stop-color="#FFFFFF" stop-opacity="0" offset="100%"></stop>
        </linearGradient>
    </defs>
    <g id="Iteration-2" stroke="none" stroke-width="1" fill="none" fill-rule="evenodd">
        <g id="Desktop-Copy-4" transform="translate(-751.000000, -52.000000)">
            <g id="Oreti" transform="translate(0.000000, 52.000000)">
                <g id="Illustration" transform="translate(751.000000, -103.000000)">
                    <path d="M384.95082,34.6714545 C391.641085,38.5642548 396.95082,48.0799887 396.95082,55.8655892 L396.95082,411.299878 C396.95082,419.085479 391.53489,422.221346 384.95082,418.328545 C378.260554,414.435745 372.95082,404.920011 372.95082,397.134411 L372.95082,41.7001216 C372.95082,33.9145211 378.366749,30.7786543 384.95082,34.6714545 Z" id="Path" fill="url(#linearGradient-1)" fill-rule="nonzero" opacity="0.326032366"></path>
                    <path d="M277.20582,1.69938837 C283.97832,5.65724625 289.35332,15.33201 289.35332,23.2477257 L289.35332,235.652765 L350.95082,272.04307 L350.95082,491.154479 C350.95082,499.070195 345.46832,502.25847 338.80332,498.300612 C332.03082,494.342754 326.65582,484.66799 326.65582,476.752274 L326.65582,286.335334 L264.95082,250.05497 L264.95082,8.84552065 C264.95082,0.929804895 270.43332,-2.25846951 277.20582,1.69938837 Z" id="Path" fill="url(#linearGradient-2)" fill-rule="nonzero" opacity="0.0667317708"></path>
                    <path d="M295.264962,808.327634 C301.572847,812.222557 306.579105,809.08498 306.579105,801.295135 L306.579105,644.632698 L355.140824,674.945112 C357.839407,676.629579 361.392571,675.807474 363.077037,673.108891 C363.648073,672.194069 363.95082,671.137311 363.95082,670.058895 L363.95082,577.878055 L363.95082,577.878055 C363.95082,570.08821 358.844437,560.567288 352.636677,556.672366 C346.328792,552.777443 341.322534,555.91502 341.322534,563.704865 L341.322534,638.032968 L292.760816,607.720554 C290.062232,606.036088 286.509068,606.858192 284.824602,609.556776 C284.253566,610.471598 283.95082,611.528356 283.95082,612.606772 L283.95082,787.121945 L283.95082,787.121945 C283.95082,794.91179 289.057203,804.432712 295.264962,808.327634 Z" id="Path" fill="url(#linearGradient-3)" fill-rule="nonzero" opacity="0.3"></path>
                    <path d="M315.95082,790.153544 C315.95082,811.547535 303.410279,821.704278 287.95082,812.73609 C272.49136,803.875952 259.95082,779.240447 259.95082,757.846456 C259.95082,736.452465 272.49136,726.295722 287.95082,735.26391 C303.410279,744.124048 315.95082,768.759553 315.95082,790.153544 Z" id="Path" fill="#B59FD3"></path>
                    <path d="M521.788116,232.671718 C515.00714,228.778304 509.625413,231.914665 509.625413,239.701493 L509.625413,345.256271 L447.95082,309.458493 L447.95082,439.130806 C447.95082,446.917634 453.440181,456.434868 460.113523,460.328282 C466.894499,464.221696 472.276226,461.085335 472.276226,453.298507 L472.276226,351.853444 L533.95082,387.651222 L533.95082,253.869194 C533.95082,246.082366 528.461458,236.565132 521.788116,232.671718 Z" id="Path" fill="url(#linearGradient-4)" fill-rule="nonzero" opacity="0.3"></path>
                    <path d="M550.95082,269.445015 C550.95082,290.632967 538.597304,300.578333 523.45082,291.822087 C508.304335,282.95774 495.95082,258.742937 495.95082,237.554985 C495.95082,216.367033 508.196913,206.421667 523.45082,215.177913 C538.704726,224.04226 550.95082,248.257063 550.95082,269.445015 Z" id="Path" fill="#510FA8"></path>
                    <path d="M639.95082,809.294163 C639.95082,801.503447 634.44282,791.981461 627.74682,788.086104 L534.502069,734.132732 C532.722597,733.103091 531.62682,731.203061 531.62682,729.147171 L531.62682,655.180412 C531.62682,653.123587 530.530054,651.222841 528.749305,650.193541 L436.15482,596.672553 L436.15482,596.672553 C429.35082,592.777195 423.95082,595.915122 423.95082,603.705837 C423.95082,611.496553 429.45882,621.018539 436.15482,624.913896 L504.343493,664.367896 C506.123009,665.397525 507.21882,667.29758 507.21882,669.353501 L507.21882,743.319109 C507.21882,745.376519 508.316204,747.277714 510.097753,748.306799 L627.85482,816.327447 L627.85482,816.327447 C634.55082,820.222805 639.95082,817.084878 639.95082,809.294163 Z" id="Path" fill="url(#linearGradient-5)" fill-rule="nonzero" opacity="0.3"></path>
                    <path d="M407.95082,926.327626 C401.260554,922.432686 395.95082,912.911719 395.95082,905.121838 L395.95082,648.704905 C395.95082,640.915024 401.366749,637.777433 407.95082,641.672374 C414.641085,645.567314 419.95082,655.088281 419.95082,662.878162 L419.95082,919.295095 C419.95082,927.084976 414.53489,930.222567 407.95082,926.327626 Z" id="Path" fill="url(#linearGradient-6)" fill-rule="nonzero" opacity="0.3"></path>
                    <path d="M654.95082,818.153544 C654.95082,839.547535 642.410279,849.704278 626.95082,840.73609 C611.49136,831.875952 598.95082,807.240447 598.95082,785.846456 C598.95082,764.452465 611.49136,754.295722 626.95082,763.26391 C642.410279,772.124048 654.95082,796.759553 654.95082,818.153544 Z" id="Path" fill="#6331A5"></path>
                    <g id="Path-2" transform="translate(55.950820, 389.000000)" fill="url(#linearGradient-7)" fill-rule="nonzero" opacity="0.3">
                        <polygon id="Path" points="-2.27373675e-13 -5.68434189e-14 176.197299 101.638737 176.197299 427.747705 -2.27373675e-13 326.108968"></polygon>
                    </g>
                    <polygon id="Path" fill="#FFFFFF" fill-rule="nonzero" opacity="0.15" points="83.9508197 596 188.95082 656.206186 188.95082 669 83.9508197 608.793814"></polygon>
                    <polygon id="Path" fill="#FFFFFF" fill-rule="nonzero" opacity="0.15" points="94.9508197 628 177.95082 676.106572 177.95082 689 94.9508197 640.893428"></polygon>
                    <polygon id="Path" fill="#B59FD3" points="122.843141 685.613522 0.950819672 615 0.950819672 651.386478 122.95082 722"></polygon>
                    <polygon id="Path" fill="#FFFFFF" fill-rule="nonzero" opacity="0.2" points="181.95082 522.630137 154.683425 544 136.361461 520.706849 112.435131 541.221918 102.95082 534.383562 138.193657 505 156.084517 528.293151 175.807573 513.761644"></polygon>
                    <path d="M202.95082,522.225464 C202.95082,534.489905 195.767146,540.242253 186.95082,535.141114 C178.134493,530.039975 170.95082,516.038976 170.95082,503.774536 C170.95082,491.510095 178.134493,485.757747 186.95082,490.858886 C195.767146,495.960025 202.95082,510.069558 202.95082,522.225464 Z" id="Path" fill="#B59FD3"></path>
                    <path d="M120.95082,546.225464 C120.95082,558.489905 113.767146,564.242253 104.95082,559.141114 C96.1344931,554.039975 88.9508197,540.038976 88.9508197,527.774536 C88.9508197,515.510095 96.1344931,509.757747 104.95082,514.858886 C113.767146,519.960025 120.95082,533.961024 120.95082,546.225464 Z" id="Path" fill="#B59FD3"></path>
                    <path d="M658.078535,600.098107 L502.598535,510.010618 C499.846034,508.415777 496.321817,509.354246 494.726976,512.106747 C494.21856,512.98421 493.95082,513.980349 493.95082,514.994462 L493.95082,588.918049 C493.95082,590.972715 495.045303,592.871808 496.823104,593.901893 L652.303104,683.989382 C655.055605,685.584223 658.579822,684.645754 660.174664,681.893253 C660.683079,681.01579 660.95082,680.019651 660.95082,679.005538 L660.95082,605.081951 C660.95082,603.027285 659.856336,601.128192 658.078535,600.098107 Z" id="Path" fill="url(#linearGradient-8)" fill-rule="nonzero" opacity="0.2"></path>
                    <polygon id="Path" fill="#FFFFFF" fill-rule="nonzero" opacity="0.15" points="536.95082 551 586.95082 580.398907 586.95082 591 536.95082 561.491803"></polygon>
                    <polygon id="Path" fill="#FFFFFF" fill-rule="nonzero" opacity="0.15" points="536.95082 572 643.95082 633.468657 643.95082 644 536.95082 582.531343"></polygon>
                    <path d="M527.95082,554.411064 C527.95082,561.48295 523.740592,564.911743 518.45082,561.911549 C513.161047,558.911355 508.95082,550.660822 508.95082,543.588936 C508.95082,536.51705 513.161047,533.088257 518.45082,536.088451 C523.740592,539.088645 527.95082,547.339178 527.95082,554.411064 Z" id="Path" fill="#B59FD3"></path>
                    <path d="M228.557249,334.375482 L71.1572491,243.175515 C68.8634983,241.846481 65.9266507,242.628538 64.5976164,244.922289 C64.173937,245.653508 63.9508197,246.483624 63.9508197,247.328719 L63.9508197,323.471315 C63.9508197,325.183537 64.8628894,326.766114 66.3443902,327.624518 L223.74439,418.824485 C226.038141,420.153519 228.974989,419.371462 230.304023,417.077711 C230.727702,416.346492 230.95082,415.516376 230.95082,414.671281 L230.95082,338.528685 C230.95082,336.816463 230.03875,335.233886 228.557249,334.375482 Z" id="Path" fill="url(#linearGradient-9)" fill-rule="nonzero" opacity="0.2"></path>
                    <path d="M106.95082,284 L152.381584,310.712296 C155.212492,312.376808 156.95082,315.415456 156.95082,318.699454 C156.95082,320.374146 155.593213,321.731752 153.918521,321.731752 C153.378081,321.731752 152.84746,321.587314 152.381584,321.313389 L106.95082,294.601093 L106.95082,294.601093 L106.95082,284 Z" id="Path" fill="#FFFFFF" fill-rule="nonzero" opacity="0.15"></path>
                    <path d="M106.95082,306 L209.384937,364.845679 C212.20937,366.46824 213.95082,369.47701 213.95082,372.734328 C213.95082,374.417541 212.586307,375.782054 210.903094,375.782054 C210.370339,375.782054 209.846891,375.642402 209.384937,375.377022 L106.95082,316.531343 L106.95082,316.531343 L106.95082,306 Z" id="Path" fill="#FFFFFF" fill-rule="nonzero" opacity="0.15"></path>
                    <path d="M451.95082,524.964762 C451.95082,577.962687 421.008632,603.055582 382.95082,580.99114 C344.785195,558.926698 313.95082,498.033163 313.95082,445.035238 C313.95082,392.037313 344.893007,366.944418 382.95082,389.00886 C421.116445,411.073302 451.95082,471.966837 451.95082,524.964762 Z" id="Path" fill="url(#linearGradient-10)" fill-rule="nonzero"></path>
                    <g id="Group" transform="translate(281.950820, 403.000000)" fill-rule="nonzero">
                        <path d="M68.9326829,8.06116129 C30.8042927,-13.9445161 0,11.0815484 0,63.9383226 C0,116.795097 30.912,177.526452 68.9326829,199.532129 C107.061073,221.537806 137.865366,196.511742 137.865366,143.654968 C137.865366,90.7981935 106.953366,30.0668387 68.9326829,8.06116129 Z" id="Shape" fill="#FFFFFF" opacity="0.4"></path>
                        <g id="Carbon-SME-Finance_-Fast-and-Flexible-loans-for-your-business.-1-Copy-3" transform="translate(28.003902, 60.486452)">
                            <polygon id="Path" fill="#E2D5FF" points="71.7521824 37.8100647 48.2806521 29.4062013 72.8938517 85.2732905"></polygon>
                            <polygon id="Path" fill="#FFFFFF" points="71.7583994 38.0685278 37.1081545 0.964241531 48.2806521 29.4062013"></polygon>
                            <polygon id="Path" fill="#E2D5FF" points="48.2785798 29.1477382 37.1081545 0.964241531 1.93559867 9.44643433"></polygon>
                            <polygon id="Path" fill="#E2D5FF" points="0.816170142 55.9850323 24.6258008 65.5754763 1.92929772 9.7083871"></polygon>
                            <polygon id="Path" fill="#FFFFFF" points="0.816170142 55.9850323 37.1407426 94.4456494 25.3210753 65.8617892"></polygon>
                            <polygon id="Path" fill="#E2D5FF" points="24.6258008 65.5754763 36.610844 94.2318185 72.8938517 85.2732905"></polygon>
                        </g>
                    </g>
                </g>
            </g>
        </g>
    </g>
</svg>